<svg width="301" height="301" viewBox="0 0 301 301" fill="none" xmlns="http://www.w3.org/2000/svg">
<path d="M150.5 0C233.619 0.00026389 301 67.3813 301 150.5C301 233.619 233.619 301 150.5 301C67.3811 301 0 233.619 0 150.5C0 67.3811 67.3811 0 150.5 0ZM259.546 70.1426C251.735 62.3321 239.071 62.3321 231.261 70.1426L124.333 177.07L71.6387 124.376C63.8282 116.566 51.165 116.566 43.3545 124.376L22.1416 145.589C14.3311 153.399 14.3311 166.064 22.1416 173.874L109.536 261.269C115.068 266.8 123.032 268.412 129.984 266.108C133.522 265.297 136.883 263.516 139.639 260.76L280.759 119.64C288.569 111.829 288.569 99.1659 280.759 91.3555L259.546 70.1426Z" fill="#22A91B"/>
</svg>
