<svg width="301" height="301" viewBox="0 0 301 301" fill="none" xmlns="http://www.w3.org/2000/svg">
<path d="M150.5 0C233.619 0 301 67.3811 301 150.5C301 233.619 233.619 301 150.5 301C67.3811 301 0 233.619 0 150.5C0 67.3811 67.3811 0 150.5 0ZM136 25C124.954 25 116 33.9543 116 45V116H45C33.9543 116 25 124.954 25 136V166C25 177.046 33.9543 186 45 186H116V257C116 268.046 124.954 277 136 277H166C177.046 277 186 268.046 186 257V186H257C268.046 186 277 177.046 277 166V136C277 124.954 268.046 116 257 116H186V45C186 33.9543 177.046 25 166 25H136Z" fill="#22A91B"/>
</svg>
