<svg width="1895" height="2212" viewBox="0 0 1895 2212" fill="none" xmlns="http://www.w3.org/2000/svg">
<path d="M751.508 0.00248639C780.508 0.0963602 804.486 2.83348 827.674 5.9517C850.866 9.07051 873.247 12.5674 899.1 14.191C950.956 17.4477 1031.16 44.1113 1114.63 93.0708C1198.12 142.037 1284.93 213.332 1349.98 305.902C1479.56 490.312 1522.25 703.026 1442.49 981.055L1441.55 984.329C1409.13 1096.2 1344.93 1207.97 1277.86 1302.2C1210.83 1396.41 1140.91 1473.13 1096.97 1515C1088.67 1529.65 1073.85 1546.99 1053.84 1566.36C1033.79 1585.76 1008.51 1607.23 979.307 1630.1C920.897 1675.85 846.774 1727.26 767.404 1779.1C608.663 1882.77 428.903 1988.2 311.812 2053.63L311.804 2053.63L311.803 2053.63L15.8037 2211.13L15.2334 2211.43L15.082 2210.81L0 2147.96L0.293945 2147.77C234.77 1993.79 494.252 1784.8 642.753 1663.8C716.933 1603.36 818.02 1474.3 906.381 1314.7C994.737 1155.11 1070.33 965.043 1093.57 782.627L1094.11 778.358C1138.9 416.166 992.242 210.229 898.785 146.102C851.844 113.892 801.671 92.1759 736.451 84.9986C672.238 77.932 593.412 84.9558 488.692 109.97L483.687 111.175C312.378 152.705 246.901 298.172 235.568 365.73C235.575 379.519 239.174 389.92 244.984 397.682C250.803 405.456 258.87 410.622 267.864 413.882C285.852 420.403 307.475 419.274 321.923 416.209C374.036 395.18 502.126 374.759 597.903 461.319L599.3 462.587C658.09 516.356 679.046 576.264 674.755 633.915C670.431 691.997 640.487 747.725 597.931 792.534C512.73 882.245 323.439 906.719 172.767 792.588C97.3693 735.477 71.2013 657.697 66.0693 586.1C60.9382 514.514 76.8324 449.072 85.5859 416.559C94.359 383.974 127.776 311.658 192.004 237.737C256.241 163.805 351.318 88.2428 483.427 49.2105L489.576 47.4029C617.887 9.88066 694.411 -0.182294 751.508 0.00248639ZM1741.07 814.19C1825.84 814.19 1894.57 882.914 1894.57 967.69C1894.57 1052.47 1825.84 1121.19 1741.07 1121.19C1656.29 1121.19 1587.57 1052.47 1587.57 967.69C1587.57 882.914 1656.29 814.19 1741.07 814.19ZM1741.07 210.19C1825.84 210.19 1894.57 278.914 1894.57 363.69C1894.57 448.465 1825.84 517.19 1741.07 517.19C1656.29 517.19 1587.57 448.465 1587.57 363.69C1587.57 278.914 1656.29 210.19 1741.07 210.19Z" fill="#333333"/>
</svg>
