<svg width="340" height="340" viewBox="0 0 340 340" fill="none" xmlns="http://www.w3.org/2000/svg">
<path d="M170 0C263.888 0 340 76.1116 340 170C340 263.888 263.888 340 170 340C76.1116 340 0 263.888 0 170C0 76.1116 76.1116 0 170 0ZM170 33C94.337 33 33 94.337 33 170C33 245.663 94.337 307 170 307C245.663 307 307 245.663 307 170C307 94.3371 245.663 33.0003 170 33ZM89.375 89.374C96.2092 82.54 107.29 82.5399 114.124 89.374L170.479 145.729L226.833 89.374C233.667 82.5403 244.747 82.5404 251.581 89.374C258.415 96.2082 258.415 107.289 251.581 114.123L195.227 170.477L251.582 226.832C258.416 233.666 258.416 244.747 251.582 251.581C244.748 258.415 233.667 258.415 226.833 251.581L170.478 195.226L114.123 251.581C107.289 258.415 96.2092 258.415 89.375 251.581C82.5408 244.747 82.5408 233.667 89.375 226.833L145.729 170.478L89.375 114.123C82.5408 107.289 82.5408 96.2082 89.375 89.374Z" fill="#333333"/>
</svg>
