<svg width="523" height="508" viewBox="0 0 523 508" fill="none" xmlns="http://www.w3.org/2000/svg">
<path d="M253.136 0C297.445 0 334.19 32.3807 341.002 74.7695C331.964 71.6782 322.27 70 312.185 70H148.049C98.8955 70 59.0488 109.847 59.0488 159V407C59.0488 411.843 59.4371 416.596 60.1816 421.229C25.1721 409.254 0 376.067 0 337V89C0 39.8467 39.8467 0 89 0H253.136Z" fill="#333333"/>
<path d="M323 82C366.736 82 403.102 113.547 410.588 155.127L351.868 213.848L300.016 161.995C292.205 154.185 279.541 154.185 271.73 161.995L237.526 196.199C229.716 204.01 229.716 216.674 237.526 224.484L337.899 324.857C345.71 332.668 358.373 332.668 366.184 324.857L400.389 290.652C401.143 289.898 401.824 289.097 402.433 288.261L412 278.694V419C412 468.153 372.153 508 323 508H159C109.847 508 70 468.153 70 419V171C70 121.847 109.847 82 159 82H323Z" fill="#333333"/>
<rect x="473.404" y="106" width="70" height="239.574" rx="20" transform="rotate(45 473.404 106)" fill="#333333"/>
<rect x="236" y="209.731" width="70" height="163.595" rx="20" transform="rotate(-45 236 209.731)" fill="#333333"/>
</svg>
