<svg width="301" height="301" viewBox="0 0 301 301" fill="none" xmlns="http://www.w3.org/2000/svg">
<path d="M150.5 0C233.619 0 301 67.3811 301 150.5C301 233.619 233.619 301 150.5 301C67.3811 301 0 233.619 0 150.5C0 67.3811 67.3811 0 150.5 0ZM84.3643 74C71.754 74.0003 62.2898 85.5289 64.7471 97.8975L95.251 251.433C97.1106 260.793 105.325 267.535 114.868 267.535H187.132C196.675 267.535 204.888 260.793 206.748 251.433L237.252 97.8975C239.709 85.5288 230.246 74.0003 217.636 74H84.3643ZM151 105C156.523 105 161 109.477 161 115V227C161 232.523 156.523 237 151 237C145.477 237 141 232.523 141 227V115C141 109.477 145.477 105 151 105ZM195.185 114.848C196.144 109.409 201.331 105.777 206.77 106.736C212.208 107.695 215.84 112.882 214.881 118.32L195.433 228.619C194.474 234.058 189.287 237.689 183.848 236.73C178.409 235.771 174.777 230.585 175.736 225.146L195.185 114.848ZM94.8477 105.736C100.287 104.777 105.474 108.409 106.433 113.848L125.881 224.146C126.84 229.585 123.208 234.771 117.77 235.73C112.331 236.689 107.144 233.058 106.185 227.619L86.7363 117.32C85.7776 111.882 89.4091 106.696 94.8477 105.736ZM117 35C112.582 35 109 38.5817 109 43V50H67.5C63.3579 50 60 53.3579 60 57.5C60 61.6421 63.3579 65 67.5 65H234.5C238.642 65 242 61.6421 242 57.5C242 53.3579 238.642 50 234.5 50H185V42.5C185 38.3579 181.642 35 177.5 35H117ZM171.5 41C175.642 41 179 44.3579 179 48.5V50H115V49C115 44.5817 118.582 41 123 41H171.5Z" fill="black"/>
</svg>
