<svg width="2016" height="2068" viewBox="0 0 2016 2068" fill="none" xmlns="http://www.w3.org/2000/svg">
<path d="M988 130.003C1015.11 130.271 1037 152.329 1037 179.5C1037 206.838 1014.84 229 987.5 229C982.648 229 977.959 228.301 973.528 227H579C313.903 227 99 441.903 99 707V1491C99.0001 1756.1 313.903 1971 579 1971H1397C1662.1 1971 1877 1756.1 1877 1491V1099H1877.3C1877.1 1097.19 1877 1095.36 1877 1093.5C1877 1066.16 1899.16 1044 1926.5 1044C1953.84 1044 1976 1066.16 1976 1093.5C1976 1095.36 1975.9 1097.19 1975.7 1099H1976V1524C1976 1824.44 1732.44 2068 1432 2068H544C243.557 2068 0.000109455 1824.44 0 1524V674C2.19168e-06 373.557 243.557 130 544 130H988V130.003ZM1456.55 97.1748C1591.73 -25.5409 1792.53 -32.647 1917.68 85.4473C2042.84 203.542 2047.39 404.42 1932.72 546.48L1933.57 547.275L1321.39 1196.05L748.927 1324.08L843.539 745.154L1455.71 96.3809L1456.55 97.1748ZM819.848 1249.39L1318.16 1123.18L916.935 744.598L819.848 1249.39ZM1863.01 143.853C1757.93 44.6966 1584.14 56.1664 1464.03 166.207L1463.33 165.539L916.935 744.597L1318.16 1123.18L1864.55 544.126L1863.84 543.459C1966.73 417.175 1968.1 243.009 1863.01 143.853Z" fill="#D9D9D9"/>
</svg>
