<svg width="510" height="405" viewBox="0 0 510 405" fill="none" xmlns="http://www.w3.org/2000/svg">
<path d="M143 293C143 231.144 193.144 181 255 181V181C316.856 181 367 231.144 367 293V375C367 391.569 353.569 405 337 405H173C156.431 405 143 391.569 143 375V293Z" fill="#333333"/>
<path d="M398 135C459.856 135 510 185.144 510 247V329C510 345.569 496.569 359 480 359H377V286C377 238.902 347.928 198.595 306.75 182.042C327.057 153.567 360.36 135 398 135Z" fill="#333333"/>
<path d="M112 135C50.1441 135 0 185.144 0 247V329C3.09245e-06 345.569 13.4315 359 30 359H133V286C133 238.902 162.072 198.595 203.25 182.042C182.943 153.567 149.64 135 112 135Z" fill="#333333"/>
<rect x="194" y="46" width="121" height="121" rx="60.5" fill="#333333"/>
<rect x="337" width="121" height="121" rx="60.5" fill="#333333"/>
<rect width="121" height="121" rx="60.5" transform="matrix(-1 0 0 1 173 0)" fill="#333333"/>
</svg>
