<svg width="340" height="363" viewBox="0 0 340 363" fill="none" xmlns="http://www.w3.org/2000/svg">
<path d="M170 12C263.888 12 340 88.1116 340 182C340 275.888 263.888 352 170 352C76.1116 352 0 275.888 0 182C0 88.1116 76.1116 12 170 12ZM170 45C94.337 45 33 106.337 33 182C33 257.663 94.337 319 170 319C245.663 319 307 257.663 307 182C307 106.337 245.663 45.0003 170 45Z" fill="#333333"/>
<path d="M147.102 225.588V221.966C147.173 209.537 148.274 199.629 150.405 192.243C152.607 184.857 155.803 178.891 159.993 174.345C164.183 169.8 169.226 165.68 175.121 161.987C179.524 159.146 183.466 156.199 186.946 153.145C190.426 150.091 193.196 146.717 195.256 143.024C197.315 139.26 198.345 135.07 198.345 130.453C198.345 125.553 197.173 121.256 194.83 117.562C192.486 113.869 189.325 111.028 185.348 109.04C181.442 107.051 177.109 106.057 172.351 106.057C167.734 106.057 163.366 107.087 159.247 109.146C155.128 111.135 151.754 114.118 149.126 118.095C146.499 122.001 145.078 126.866 144.865 132.69H101.399C101.754 118.486 105.163 106.767 111.626 97.5341C118.089 88.2301 126.648 81.3054 137.301 76.7599C147.955 72.1435 159.709 69.8352 172.564 69.8352C186.697 69.8352 199.197 72.179 210.064 76.8665C220.93 81.4829 229.453 88.1946 235.632 97.0014C241.811 105.808 244.901 116.426 244.901 128.855C244.901 137.165 243.516 144.551 240.746 151.014C238.047 157.406 234.247 163.088 229.347 168.06C224.446 172.96 218.658 177.399 211.982 181.376C206.371 184.714 201.754 188.195 198.132 191.817C194.581 195.439 191.918 199.629 190.142 204.388C188.438 209.146 187.55 215.006 187.479 221.966V225.588H147.102ZM168.196 293.77C161.094 293.77 155.021 291.284 149.979 286.312C145.007 281.27 142.557 275.233 142.628 268.202C142.557 261.241 145.007 255.276 149.979 250.304C155.021 245.332 161.094 242.847 168.196 242.847C174.943 242.847 180.874 245.332 185.987 250.304C191.101 255.276 193.693 261.241 193.764 268.202C193.693 272.889 192.45 277.186 190.036 281.092C187.692 284.928 184.602 288.017 180.767 290.361C176.932 292.634 172.741 293.77 168.196 293.77Z" fill="#333333"/>
</svg>
