<svg width="587" height="587" viewBox="0 0 587 587" fill="none" xmlns="http://www.w3.org/2000/svg">
<path d="M293.5 0C455.596 0 587 131.404 587 293.5C587 455.596 455.596 587 293.5 587C131.404 587 0 455.596 0 293.5C0 131.404 131.404 0 293.5 0ZM294 69C169.736 69 69 169.736 69 294C69 418.264 169.736 519 294 519C418.264 519 519 418.264 519 294C519 169.736 418.264 69 294 69Z" fill="#333333"/>
<rect x="274" y="150" width="30" height="187" rx="13" fill="#333333"/>
<rect x="270" y="328.222" width="30.0405" height="104.044" rx="13" transform="rotate(-50.7858 270 328.222)" fill="#333333"/>
</svg>
