<svg width="943" height="1052" viewBox="0 0 943 1052" fill="none" xmlns="http://www.w3.org/2000/svg">
<path d="M0.5 125.03C0.5 29.5749 103.833 -30.0851 186.5 17.6424L881 418.612C963.667 466.34 963.667 585.659 881 633.387L186.5 1034.36C103.833 1082.08 0.50005 1022.42 0.5 926.97V125.03ZM352.5 232C190.404 232 59 363.404 59 525.5C59.0001 687.595 190.404 819 352.5 819C514.596 819 646 687.595 646 525.5C646 363.404 514.596 232 352.5 232ZM353 301C477.264 301 578 401.736 578 526C578 650.264 477.264 751 353 751C228.736 751 128 650.264 128 526C128 401.736 228.736 301 353 301ZM336 569H336.001L416.612 635.054L435.604 611.778L366 554.981V382H336V569Z" fill="#333333"/>
</svg>
