<svg width="925" height="1047" viewBox="0 0 925 1047" fill="none" xmlns="http://www.w3.org/2000/svg">
<path d="M0 69.7714C0 31.2377 31.2377 0 69.7714 0H281.2C319.734 0 350.971 31.2377 350.971 69.7714V976.8C350.971 1015.33 319.734 1046.57 281.2 1046.57H69.7714C31.2377 1046.57 0 1015.33 0 976.8V69.7714Z" fill="#333333"/>
<path d="M574.028 69.7714C574.028 31.2377 605.266 0 643.8 0H855.228C893.762 0 925 31.2377 925 69.7714V976.8C925 1015.33 893.762 1046.57 855.228 1046.57H643.8C605.266 1046.57 574.028 1015.33 574.028 976.8V69.7714Z" fill="#333333"/>
</svg>
