<svg width="943" height="1052" viewBox="0 0 943 1052" fill="none" xmlns="http://www.w3.org/2000/svg">
<path d="M0.5 125.03C0.5 29.5749 103.833 -30.0851 186.5 17.6424L881 418.612C963.667 466.34 963.667 585.659 881 633.387L186.5 1034.36C103.833 1082.08 0.50005 1022.42 0.5 926.97V125.03ZM372.832 252V693.031C344.732 679.886 305.8 678.388 266.953 691.666C202.682 713.633 162.981 767.724 178.278 812.48C193.576 857.237 258.078 875.712 322.35 853.745C378.648 834.503 416.093 790.613 414.236 749.938V397.368C483.718 398.303 601.037 450.083 524.354 651.067H536.688C575.743 593.365 620.641 454.705 487.795 361.678C464.856 346.258 422.673 309.025 414.236 270.199V252H372.832Z" fill="#333333"/>
</svg>
