<svg width="376" height="345" viewBox="0 0 376 345" fill="none" xmlns="http://www.w3.org/2000/svg">
<rect x="128" y="115" width="120" height="230" rx="20" fill="#333333"/>
<rect y="175" width="120" height="170" rx="20" fill="#333333"/>
<rect x="256" y="235" width="120" height="110" rx="20" fill="#333333"/>
<path d="M182.745 14.6353C184.241 10.0287 190.759 10.0287 192.255 14.6353L200.185 39.0405C200.854 41.1007 202.774 42.4955 204.94 42.4955H230.602C235.445 42.4955 237.459 48.6935 233.54 51.5405L212.78 66.6238C211.028 67.8971 210.294 70.1539 210.964 72.214L218.894 96.6193C220.39 101.226 215.118 105.056 211.199 102.209L190.439 87.1262C188.686 85.8529 186.314 85.8529 184.561 87.1262L163.801 102.209C159.882 105.056 154.61 101.226 156.106 96.6193L164.036 72.214C164.706 70.1539 163.972 67.8971 162.22 66.6238L141.46 51.5405C137.541 48.6935 139.555 42.4955 144.398 42.4955H170.06C172.226 42.4955 174.146 41.1007 174.815 39.0405L182.745 14.6353Z" fill="#333333"/>
</svg>
