<svg width="301" height="301" viewBox="0 0 301 301" fill="none" xmlns="http://www.w3.org/2000/svg">
<path d="M150.5 0C233.619 0.00026389 301 67.3813 301 150.5C301 233.619 233.619 301 150.5 301C67.3811 301 0 233.619 0 150.5C0 67.3811 67.3811 0 150.5 0ZM229.679 51.4893C221.868 43.6788 209.205 43.6788 201.395 51.4893L151.189 101.693L100.985 51.4893C93.1749 43.6788 80.5117 43.6788 72.7012 51.4893L51.4873 72.7021C43.6771 80.5126 43.6771 93.1759 51.4873 100.986L101.692 151.19L51.4883 201.396C43.6778 209.206 43.6778 221.869 51.4883 229.68L72.7012 250.893C80.5117 258.703 93.1749 258.703 100.985 250.893L151.189 200.688L201.395 250.893C209.205 258.703 221.868 258.703 229.679 250.893L250.892 229.68C258.702 221.869 258.702 209.206 250.892 201.396L200.687 151.19L250.892 100.986C258.702 93.1758 258.702 80.5126 250.892 72.7021L229.679 51.4893Z" fill="#E90000"/>
</svg>
