<svg width="587" height="664" viewBox="0 0 587 664" fill="none" xmlns="http://www.w3.org/2000/svg">
<path d="M293.705 16.6693C293.705 9.17217 285.668 4.41911 279.098 8.03121L105.712 103.362C98.9008 107.107 98.9008 116.893 105.712 120.638L279.098 215.969C285.668 219.581 293.705 214.828 293.705 207.331V16.6693Z" fill="#333333"/>
<path d="M292.998 77.001V146C417.262 146 517.998 246.736 517.998 371C517.998 495.264 417.262 596 292.998 596C168.734 596 67.998 495.264 67.998 371H0C0.26989 532.866 131.569 664 293.498 664C455.594 664 586.998 532.596 586.998 370.5C586.998 208.404 455.594 77 293.498 77C293.331 77 293.165 77.0007 292.998 77.001Z" fill="#333333"/>
<path d="M290.767 499.983C278.267 499.983 267.01 497.497 256.996 492.526C246.982 487.554 238.956 480.736 232.919 472.071C226.882 463.406 223.58 453.534 223.011 442.455H248.58C249.574 452.327 254.048 460.494 262.003 466.957C270.028 473.349 279.616 476.545 290.767 476.545C299.716 476.545 307.67 474.45 314.631 470.26C321.662 466.07 327.166 460.317 331.143 453.001C335.192 445.615 337.216 437.27 337.216 427.966C337.216 418.449 335.121 409.962 330.93 402.504C326.811 394.976 321.129 389.045 313.885 384.713C306.641 380.381 298.366 378.179 289.062 378.108C282.386 378.037 275.533 379.067 268.501 381.197C261.47 383.257 255.682 385.92 251.136 389.188L226.42 386.205L239.631 278.818H352.983V302.256H261.79L254.119 366.602H255.398C259.872 363.051 265.483 360.104 272.23 357.76C278.977 355.416 286.009 354.244 293.324 354.244C306.676 354.244 318.572 357.44 329.013 363.832C339.524 370.153 347.763 378.818 353.729 389.827C359.766 400.835 362.784 413.406 362.784 427.54C362.784 441.46 359.659 453.889 353.409 464.827C347.23 475.693 338.707 484.287 327.841 490.608C316.974 496.858 304.616 499.983 290.767 499.983Z" fill="#333333"/>
</svg>
