<svg width="1182" height="2856" viewBox="0 0 1182 2856" fill="none" xmlns="http://www.w3.org/2000/svg">
<path opacity="0.93" d="M666.794 11.6055C680.185 5.57962 702.611 -0.691134 726.415 0.0615234C750.223 0.814453 775.451 8.59751 794.366 30.7217L795.952 32.4521C863.507 106.89 981.373 332.853 924.991 657.647V657.652L924.499 657.562L924.99 657.652C911.971 728.089 833.854 913.341 625.554 1091.74L688.884 1366.01C742.324 1358.82 828.887 1361.37 915.567 1392.3C1001.82 1423.08 1088.22 1481.97 1142.18 1587.34L1143.45 1589.84L1143.45 1589.84L1144.16 1591.29C1174.27 1652.93 1196.93 1753.77 1167.94 1857.91C1138.74 1962.82 1057.13 2071.01 878.082 2145.86L953.485 2465.45L953.49 2465.46L953.493 2465.48C962.756 2523.14 959.429 2611.83 919.332 2690.53C879.22 2769.25 802.327 2837.94 664.562 2855.56L664.525 2855.56L664.487 2855.56C615.038 2854.39 537.818 2846.17 466.846 2825.27C431.359 2814.82 397.416 2801.19 369.283 2783.69C341.169 2766.2 318.828 2744.82 306.568 2718.82C282.615 2686.34 257.478 2632.05 259.912 2574.68C262.35 2517.24 292.425 2456.79 378.77 2412.12L378.813 2412.09L378.86 2412.08C420.007 2400.23 482.725 2394.24 537.139 2414.82C564.354 2425.11 589.498 2442.06 608.812 2468.25C628.127 2494.44 641.591 2529.85 645.497 2577.02L645.502 2577.07L645.495 2577.12C641.695 2607.28 627.516 2650.57 597.296 2682.42C567.185 2714.16 521.185 2734.5 453.819 2719.26C466.642 2750.34 525.894 2806.56 664.422 2787.57L666.101 2787.3C701.63 2781.45 754.719 2764.24 800.645 2731.22C847.29 2697.67 886.516 2647.84 892.501 2577.02L892.502 2577.01L892.62 2575.86C897.536 2526.47 889.767 2378.04 819.671 2169.16C766.65 2182.29 676.906 2194.59 579.333 2188.94C481.488 2183.27 375.717 2159.54 291.213 2100.47H291.212C244.499 2070.27 174.188 2011.29 114.999 1932.44C55.8132 1853.59 7.71765 1754.84 5.5 1645.13C-8.26954 1589.29 0.420375 1484.66 70.9951 1351.98C141.572 1219.29 274.052 1058.52 507.925 890.358C477.698 781.21 449.384 606.51 462.563 436.66C475.755 266.651 530.53 101.371 666.724 11.6436L666.758 11.6221L666.794 11.6055ZM569.226 1134.64C427.952 1227.09 287.276 1392.91 234.597 1464.26L234.582 1464.28L234.569 1464.3C112.099 1669.22 140.791 1826.61 170.562 1879.8V1879.8C247.646 2018.16 370.159 2086.02 491.947 2114.64C613.724 2143.25 734.805 2132.65 809.12 2114.05L809.598 2113.93L809.485 2113.45L683.485 1576.95L683.378 1576.49L682.912 1576.57C552.662 1599.41 496.045 1702.31 484.013 1750.94L484.007 1750.97L484.004 1750.99C475.378 1812.18 499.249 1861.11 532.555 1897.4C565.827 1933.65 608.537 1957.31 637.762 1968.01C646.014 1973.78 650.152 1978.43 651.512 1982.11C652.185 1983.93 652.171 1985.5 651.654 1986.87C651.134 1988.25 650.084 1989.47 648.594 1990.54C645.601 1992.7 640.947 1994.2 635.757 1995.15C630.593 1996.1 624.957 1996.52 620.028 1996.56C513.227 1981.98 449.992 1924.47 414.313 1858.5C378.625 1792.51 370.506 1718.05 373.996 1669.62C411.159 1475.9 566.245 1394.52 639.109 1378.05L639.625 1377.93L639.479 1377.42L569.979 1134.92L569.793 1134.27L569.226 1134.64ZM910.755 1606.11C861.872 1572.87 799.355 1551.73 727.385 1568.57L726.896 1568.69L727.013 1569.18L853.013 2094.68L853.153 2095.26L853.704 2095.02C898.107 2075.07 959.32 2032.21 998.675 1968.44C1038.05 1904.64 1055.53 1819.93 1012.46 1716.37L1012.45 1716.34L1012.44 1716.32L1011.6 1714.83C993.799 1683.26 958.866 1638.82 910.755 1606.11ZM827.157 271.088C808.144 252.896 778.573 240.149 734.438 245.565L734.414 245.568L734.391 245.573C638.34 266.825 468.882 415.63 556.509 840.162L556.672 840.952L557.308 840.455C609.592 799.512 687.278 724.826 750.447 633.809C813.611 542.8 862.307 435.396 856.498 329.034L856.497 329.018L856.495 329.002L856.4 328.238C854.302 312.09 845.854 288.977 827.157 271.088Z" fill="#333333"/>
</svg>
