<svg width="1430" height="1132" viewBox="0 0 1430 1132" fill="none" xmlns="http://www.w3.org/2000/svg">
<path d="M747 862.045V1011.19C747 1048.96 704.717 1071.3 673.519 1050.02L295.181 792H47C21.0428 792 0.000249157 770.957 0 745V387C0 361.042 21.0426 340 47 340H124.851L747 862.045ZM673.519 82.2508C704.717 60.9737 747 83.3168 747 121.08V653.056L338.793 310.53L673.519 82.2508Z" fill="#333333"/>
<path d="M958.719 857.634C983.681 878.579 986.937 915.794 965.992 940.755V940.755C945.046 965.717 907.832 968.972 882.87 948.027L53.2498 251.893C28.2884 230.948 25.0325 193.733 45.9776 168.772V168.772C66.9227 143.81 104.137 140.555 129.099 161.5L958.719 857.634Z" fill="#333333"/>
</svg>
