<svg width="1430" height="1133" viewBox="0 0 1430 1133" fill="none" xmlns="http://www.w3.org/2000/svg">
<path d="M0 387.604C0 361.646 21.0426 340.604 47 340.604H316C341.957 340.604 363 361.646 363 387.604V745.604C363 771.561 341.957 792.604 316 792.604H47C21.0426 792.604 0 771.561 0 745.604V387.604Z" fill="#333333"/>
<path d="M673.518 82.8544C704.717 61.5772 747 83.9202 747 121.683V1011.8C747 1049.56 704.717 1071.9 673.518 1050.63L20.9354 605.569C-6.42247 586.911 -6.4225 546.569 20.9354 527.911L673.518 82.8544Z" fill="#333333"/>
<path d="M907.305 288.604C976.948 360.584 1019.8 458.642 1019.8 566.709C1019.8 674.844 976.894 772.955 907.174 844.948L841 778.774C895.251 724.49 928.804 649.518 928.804 566.709C928.804 483.967 895.306 409.049 841.133 354.775L907.305 288.604Z" fill="#333333"/>
</svg>
