<svg width="1430" height="1133" viewBox="0 0 1430 1133" fill="none" xmlns="http://www.w3.org/2000/svg">
<path d="M1195.13 1.07422C1339.97 145.854 1429.55 345.896 1429.55 566.862C1429.55 787.709 1340.06 987.653 1195.37 1132.41L1124.66 1061.7C1251.26 935.039 1329.55 760.094 1329.55 566.862C1329.55 373.51 1251.16 198.468 1124.42 71.7852L1195.13 1.07422Z" fill="#333333"/>
<path d="M134.945 71.5215C134.867 71.5996 134.789 71.6778 134.711 71.7559L64 1.0459C64.0783 0.967627 64.156 0.888786 64.2344 0.810547L134.945 71.5215Z" fill="#333333"/>
<path d="M0 387.811C0 361.853 21.0426 340.811 47 340.811H316C341.957 340.811 363 361.853 363 387.811V745.811C363 771.768 341.957 792.811 316 792.811H47C21.0426 792.811 0 771.768 0 745.811V387.811Z" fill="#333333"/>
<path d="M673.518 83.0614C704.717 61.7842 747 84.1272 747 121.891V1012C747 1049.77 704.717 1072.11 673.518 1050.83L20.9354 605.776C-6.42247 587.118 -6.4225 546.776 20.9354 528.118L673.518 83.0614Z" fill="#333333"/>
<path d="M1053.29 143.074C1161.93 251.661 1229.13 401.703 1229.13 567.44C1229.13 733.059 1162.03 883.003 1053.53 991.571L982.816 920.861C1073.22 830.39 1129.13 705.445 1129.13 567.44C1129.13 429.317 1073.12 304.275 982.582 213.784L1053.29 143.074Z" fill="#333333"/>
<path d="M275.946 213.521C275.868 213.599 275.788 213.676 275.71 213.755L205 143.045C205.078 142.966 205.158 142.889 205.236 142.811L275.946 213.521Z" fill="#333333"/>
<path d="M907.305 288.811C976.948 360.791 1019.8 458.849 1019.8 566.916C1019.8 675.051 976.894 773.162 907.174 845.155L841 778.981C895.251 724.697 928.804 649.725 928.804 566.916C928.804 484.174 895.306 409.256 841.133 354.982L907.305 288.811Z" fill="#333333"/>
</svg>
