<svg width="1430" height="1132" viewBox="0 0 1430 1132" fill="none" xmlns="http://www.w3.org/2000/svg">
<path d="M0 387.207C0 361.25 21.0426 340.207 47 340.207H316C341.957 340.207 363 361.25 363 387.207V745.207C363 771.164 341.957 792.207 316 792.207H47C21.0426 792.207 0 771.164 0 745.207V387.207Z" fill="#333333"/>
<path d="M673.518 82.4579C704.717 61.1807 747 83.5237 747 121.287V1011.4C747 1049.16 704.717 1071.51 673.518 1050.23L20.9354 605.173C-6.42247 586.515 -6.4225 546.173 20.9354 527.515L673.518 82.4579Z" fill="#333333"/>
<path d="M1053.29 142.471C1161.93 251.057 1229.13 401.099 1229.13 566.837C1229.13 732.455 1162.03 882.4 1053.53 990.968L982.816 920.258C1073.22 829.786 1129.13 704.841 1129.13 566.837C1129.13 428.713 1073.12 303.671 982.582 213.181L1053.29 142.471Z" fill="#333333"/>
<path d="M275.946 212.917C275.868 212.995 275.788 213.073 275.71 213.151L205 142.441C205.078 142.363 205.158 142.285 205.236 142.207L275.946 212.917Z" fill="#333333"/>
<path d="M907.305 288.207C976.948 360.188 1019.8 458.245 1019.8 566.312C1019.8 674.447 976.894 772.559 907.174 844.552L841 778.378C895.251 724.094 928.804 649.122 928.804 566.312C928.804 483.57 895.306 408.653 841.133 354.379L907.305 288.207Z" fill="#333333"/>
</svg>
